<svg id="Layer_1" data-name="Layer 1" xmlns="http://www.w3.org/2000/svg" viewBox="0 0 103.33 105.35"><defs><style>.cls-1{fill:#fff;}.cls-2{fill:#292227;}</style></defs><rect class="cls-1" width="103.33" height="105.35" rx="10"/><path class="cls-2" d="M24.23,35.2H17.57v-9H33.76v53H24.23Z"/><path class="cls-2" d="M85.76,62.49C85.76,74,77.3,80.25,68,80.25c-5.3,0-9.31-1.65-13.46-5.8-2.87-2.87-4.37-6.52-4.37-12.47v-19c0-12.53,9.52-17.83,18.12-17.83,8.09,0,17.48,5.8,17.48,17.83ZM76.23,43c0-5.22-3.72-8.88-8.17-8.88s-8.38,3.23-8.38,9.24v18c0,8.09,5.16,9.81,8.31,9.81,2.72,0,8.24-1.29,8.24-9.59Z"/></svg>