<svg id="Layer_1" data-name="Layer 1" xmlns="http://www.w3.org/2000/svg" viewBox="0 0 91.84 45.96"><defs><style>.cls-1{fill:#292227;}</style></defs><path class="cls-1" d="M4.71,35.67l6.73-10.25a5.81,5.81,0,0,1-1.48.12,9.52,9.52,0,0,1-9-9.88,10.53,10.53,0,1,1,21,0,11.23,11.23,0,0,1-.7,3.77,18.26,18.26,0,0,1-1.76,3.41L11.11,35.67ZM11.52,9.92a5.15,5.15,0,0,0-5.08,5.25,5,5,0,0,0,5.08,5.33,5.11,5.11,0,0,0,5-5.13A5.21,5.21,0,0,0,11.52,9.92Z"/><path class="cls-1" d="M26.12,13.08a8.34,8.34,0,1,1,16.68,0,7.78,7.78,0,0,1-2.74,5.74,8.18,8.18,0,0,1,4.51,7.62,10.13,10.13,0,0,1-20.26,0,8.18,8.18,0,0,1,4.51-7.62A7.77,7.77,0,0,1,26.12,13.08Zm8.32,8.69a4.68,4.68,0,1,0,4.67,4.67A4.67,4.67,0,0,0,34.44,21.77Zm0-11.89a3.26,3.26,0,1,0,3.24,3.28A3.25,3.25,0,0,0,34.44,9.88Z"/><path class="cls-1" d="M55.35,10.5H51.54V5.33H60.8V35.67H55.35Z"/><path class="cls-1" d="M90.57,26.12c0,6.6-4.84,10.17-10.17,10.17A10.07,10.07,0,0,1,72.69,33c-1.64-1.64-2.5-3.73-2.5-7.13V14.92c0-7.17,5.46-10.21,10.37-10.21a9.86,9.86,0,0,1,10,10.21ZM85.12,15a4.81,4.81,0,0,0-4.68-5.08c-2.62,0-4.79,1.85-4.79,5.29V25.5c0,4.63,2.95,5.62,4.75,5.62,1.56,0,4.72-.74,4.72-5.5Z"/></svg>