<svg id="Layer_1" data-name="Layer 1" xmlns="http://www.w3.org/2000/svg" viewBox="0 0 512 512"><defs><style>.cls-1{fill:#444545;}.cls-2{fill:#231f20;}</style></defs><rect class="cls-1" width="512" height="512"/><path class="cls-2" d="M223.52,150.31v34.35c0,12.84-9.53,14.59-13.09,14.59a13.09,13.09,0,0,1-9.79-4.15,16.38,16.38,0,0,1-3.5-8.1h9c.58,2.59,2,3.95,4.21,3.95,3.82,0,4.34-3.76,4.34-5.7V150.31Z"/><path class="cls-2" d="M263.39,162.3v36h-7.91v-3.63h-.13a10.4,10.4,0,0,1-9.27,4.8c-6.54,0-10.24-3.24-12.05-5.7-2.66-3.83-2.66-9.66-2.66-12.64V162.3H240v18.34c0,2.92,0,10.89,7.52,10.89,5.44,0,7.26-5.12,7.26-10.82V162.3Z"/><path class="cls-2" d="M284.91,172.09c-.58-2.85-2.53-3.11-3.44-3.11a3.16,3.16,0,0,0-3.3,3.11c0,2.07,1.49,2.52,6.09,4s10.05,3.5,10.05,10.76a12.32,12.32,0,0,1-12.58,12.57c-3.56,0-8-1.23-10.76-4.73a13.38,13.38,0,0,1-2.72-7.78h8.82c.39,1.62,1.16,4.6,4.73,4.6a3.67,3.67,0,0,0,3.89-3.63c0-2.65-1.95-3.3-8.1-5.38-4.09-1.36-8-4.4-8-10.3,0-7,6.29-11.15,12.05-11.15a11.59,11.59,0,0,1,11.74,11Z"/><path class="cls-2" d="M301.12,170H296.9V162.3h4.22v-12h8.62v12h5.18V170h-5.18v28.32h-8.62Z"/><path class="cls-2" d="M252.43,228.1h6.94l20.09,48h-9.78l-5.12-12.38H247.38l-5.12,12.38h-9.79Zm-2.07,27.22h11l-5.45-14.71h-.13Z"/><path class="cls-2" d="M208.55,314.18h-8.88v-8.3h26.7v8.3h-8.94v39.67h-8.88Z"/><path class="cls-2" d="M234.35,339.72c.39,2.33,3.76,7.39,9.92,7.39,3.82,0,6.67-1.62,8.29-4.6h9.08A18.72,18.72,0,0,1,225.27,336c0-10.18,7.52-19.32,18.93-19.32,11.8,0,18.61,9.66,18.61,18.74a19.9,19.9,0,0,1-.52,4.34ZM254,332.78c-1-5.76-5.12-8.23-9.72-8.23-3.5,0-8.56,1.56-10.18,8.23Z"/><path class="cls-2" d="M282.64,327.66c-.58-2.85-2.53-3.11-3.43-3.11a3.16,3.16,0,0,0-3.31,3.11c0,2.08,1.49,2.53,6.09,4S292,335.18,292,342.44A12.32,12.32,0,0,1,279.47,355c-3.57,0-8-1.23-10.76-4.73a13.35,13.35,0,0,1-2.73-7.78h8.82c.39,1.62,1.17,4.6,4.73,4.6a3.67,3.67,0,0,0,3.89-3.63c0-2.66-1.94-3.31-8.1-5.38-4.09-1.36-8-4.41-8-10.31,0-7,6.29-11.15,12.06-11.15a11.58,11.58,0,0,1,11.73,11Z"/><path class="cls-2" d="M298.85,325.52h-4.21v-7.64h4.21v-12h8.62v12h5.18v7.64h-5.18v28.33h-8.62Z"/></svg>